M48
; DRILL file {KiCad (5.1.2)-2} date 2021/05/25 9:48:22
; FORMAT={2:4/ absolute / inch / suppress leading zeros}
; #@! TF.CreationDate,2021-05-25T09:48:22+09:00
; #@! TF.GenerationSoftware,Kicad,Pcbnew,(5.1.2)-2
FMAT,2
INCH,TZ
T1C0.0157
T2C0.0394
T3C0.0402
T4C0.0421
T5C0.1181
%
G90
G05
T1
X43000Y-35000
X44500Y-40250
X44500Y-42250
X44750Y-35250
X45000Y-31250
X46250Y-36250
X51750Y-42750
X53000Y-42250
X53750Y-32250
X58750Y-44130
X59000Y-31750
X62000Y-32750
X62000Y-34250
X62000Y-37750
X64750Y-33500
T2
X57000Y-39250
X57000Y-40250
X57000Y-41250
X57000Y-42250
X57000Y-31250
X57000Y-32250
X57000Y-33250
X57000Y-34250
X49750Y-44500
X50750Y-44500
X51750Y-44500
X52750Y-44500
X46250Y-31250
X46250Y-32250
X46250Y-33250
X46250Y-34250
X46250Y-39250
X46250Y-40250
X46250Y-41250
X46250Y-42250
T3
X38888Y-27104
X38888Y-28104
X38888Y-29104
X38888Y-30104
X38888Y-31104
X38888Y-32104
X38888Y-33104
X38888Y-34104
X38888Y-35104
X38888Y-36104
X38888Y-37104
X38888Y-38104
X38888Y-39104
X38888Y-40104
X38888Y-41104
X38888Y-42104
X38888Y-43104
X38888Y-44104
X38888Y-45104
X39888Y-27104
X39888Y-28104
X39888Y-29104
X39888Y-30104
X39888Y-31104
X39888Y-32104
X39888Y-33104
X39888Y-34104
X39888Y-35104
X39888Y-36104
X39888Y-37104
X39888Y-38104
X39888Y-39104
X39888Y-40104
X39888Y-41104
X39888Y-42104
X39888Y-43104
X39888Y-44104
X39888Y-45104
X62888Y-27104
X62888Y-28104
X62888Y-29104
X62888Y-30104
X62888Y-31104
X62888Y-32104
X62888Y-33104
X62888Y-34104
X62888Y-35104
X62888Y-36104
X62888Y-37104
X62888Y-38104
X62888Y-39104
X62888Y-40104
X62888Y-41104
X62888Y-42104
X62888Y-43104
X62888Y-44104
X62888Y-45104
X63888Y-27104
X63888Y-28104
X63888Y-29104
X63888Y-30104
X63888Y-31104
X63888Y-32104
X63888Y-33104
X63888Y-34104
X63888Y-35104
X63888Y-36104
X63888Y-37104
X63888Y-38104
X63888Y-39104
X63888Y-40104
X63888Y-41104
X63888Y-42104
X63888Y-43104
X63888Y-44104
X63888Y-45104
T4
X41888Y-31104
X41888Y-32104
X41888Y-33104
X41888Y-34104
X41888Y-35104
X41888Y-36104
X41888Y-37104
X41888Y-38104
X41888Y-40104
X41888Y-41104
X41888Y-42104
X41888Y-43104
X41888Y-44104
X41888Y-45104
X60888Y-27506
X60888Y-28506
X60888Y-29506
X60888Y-30506
X60888Y-31506
X60888Y-32506
X60888Y-33506
X60888Y-34506
X60888Y-35506
X60888Y-36506
X60888Y-38104
X60888Y-39104
X60888Y-40104
X60888Y-41104
X60888Y-42104
X60888Y-43104
X60888Y-44104
X60888Y-45104
T5
X41888Y-25604
X54888Y-46104
X60888Y-26104
T0
M30
